<svg xmlns="http://www.w3.org/2000/svg" xmlns:xlink="http://www.w3.org/1999/xlink" viewBox="0 0 430 430" width="430" height="430" preserveAspectRatio="xMidYMid meet" style="width: 100%; height: 100%; transform: translate3d(0px, 0px, 0px); content-visibility: visible;"><defs><clipPath id="__lottie_element_343"><rect width="430" height="430" x="0" y="0"/></clipPath><clipPath id="__lottie_element_345"><path d="M0,0 L430,0 L430,430 L0,430z"/></clipPath></defs><g clip-path="url(#__lottie_element_343)"><g clip-path="url(#__lottie_element_345)" transform="matrix(1,0,0,1,0,0)" opacity="1" style="display: block;"><g transform="matrix(1,0,0,1,-35,-21.5)" opacity="1" style="display: block;"><g opacity="1" transform="matrix(1,0,0,1,250,309.0409851074219)"><path stroke-linecap="round" stroke-linejoin="round" fill-opacity="0" class="secondary" stroke="rgb(0,0,0)" stroke-opacity="1" stroke-width="18" d=" M59.09000015258789,0 C59.09000015258789,0 -59.09000015258789,0 -59.09000015258789,0"/></g><g opacity="1" transform="matrix(1,0,0,1,250,92.0739974975586)"><path stroke-linecap="round" stroke-linejoin="round" fill-opacity="0" class="secondary" stroke="rgb(0,0,0)" stroke-opacity="1" stroke-width="18" d=" M0,28.8799991607666 C0,28.8799991607666 0,-28.8799991607666 0,-28.8799991607666"/></g><g opacity="1" transform="matrix(1,0,0,1,250,90.29000091552734)"><path stroke-linecap="round" stroke-linejoin="round" fill-opacity="0" class="secondary" stroke="rgb(0,0,0)" stroke-opacity="1" stroke-width="18" d=" M28.8799991607666,0 C28.8799991607666,0 -28.8799991607666,0 -28.8799991607666,0"/></g><g opacity="1" transform="matrix(1,0,0,1,203.5760040283203,261.0360107421875)"><path stroke-linecap="round" stroke-linejoin="round" fill-opacity="0" class="primary" stroke="rgb(0,0,0)" stroke-opacity="1" stroke-width="18" d=" M-20.93000030517578,91.3239974975586 C-19.590999603271484,32.566001892089844 20.93000030517578,4.684999942779541 20.93000030517578,-91.3239974975586"/></g><g opacity="1" transform="matrix(1,0,0,1,250,145.51800537109375)"><path stroke-linecap="round" stroke-linejoin="round" fill-opacity="0" class="primary" stroke="rgb(0,0,0)" stroke-opacity="1" stroke-width="18" d=" M58.04600143432617,-24.194000244140625 C58.04600143432617,-24.194000244140625 -58.04600143432617,-24.194000244140625 -58.04600143432617,-24.194000244140625 C-58.04600143432617,-24.194000244140625 -25.46299934387207,24.194000244140625 -25.46299934387207,24.194000244140625 C-25.46299934387207,24.194000244140625 25.46299934387207,24.194000244140625 25.46299934387207,24.194000244140625 C25.46299934387207,24.194000244140625 58.04600143432617,-24.194000244140625 58.04600143432617,-24.194000244140625z"/></g><g opacity="1" transform="matrix(1,0,0,1,296.42401123046875,261.0360107421875)"><path stroke-linecap="round" stroke-linejoin="round" fill-opacity="0" class="primary" stroke="rgb(0,0,0)" stroke-opacity="1" stroke-width="18" d=" M-20.93000030517578,-91.3239974975586 C-20.93000030517578,4.684999942779541 19.590999603271484,32.566001892089844 20.93000030517578,91.3239974975586"/></g><g opacity="1" transform="matrix(1,0,0,1,250,381.2349853515625)"><path stroke-linecap="round" stroke-linejoin="round" fill-opacity="0" class="primary" stroke="rgb(0,0,0)" stroke-opacity="1" stroke-width="18" d=" M67.73699951171875,28.884000778198242 C67.73699951171875,28.884000778198242 -67.73699951171875,28.884000778198242 -67.73699951171875,28.884000778198242 C-77.66200256347656,28.884000778198242 -85.70700073242188,20.839000701904297 -85.70700073242188,10.913999557495117 C-85.70700073242188,10.913999557495117 -85.70700073242188,-10.913999557495117 -85.70700073242188,-10.913999557495117 C-85.70700073242188,-20.839000701904297 -77.66200256347656,-28.884000778198242 -67.73699951171875,-28.884000778198242 C-67.73699951171875,-28.884000778198242 67.73699951171875,-28.884000778198242 67.73699951171875,-28.884000778198242 C77.66200256347656,-28.884000778198242 85.70700073242188,-20.839000701904297 85.70700073242188,-10.913999557495117 C85.70700073242188,-10.913999557495117 85.70700073242188,10.913999557495117 85.70700073242188,10.913999557495117 C85.70700073242188,20.839000701904297 77.66200256347656,28.884000778198242 67.73699951171875,28.884000778198242z"/></g></g></g></g></svg>