<?xml version="1.0" standalone="no"?>
<!DOCTYPE svg PUBLIC "-//W3C//DTD SVG 20010904//EN"
 "http://www.w3.org/TR/2001/REC-SVG-20010904/DTD/svg10.dtd">
<svg version="1.0" xmlns="http://www.w3.org/2000/svg"
 width="464.000000pt" height="830.000000pt" viewBox="0 0 464.000000 830.000000"
 preserveAspectRatio="xMidYMid meet">

<g transform="translate(0.000000,830.000000) scale(0.100000,-0.100000)"
fill="#000000" stroke="none">
<path d="M2165 8280 c-11 -5 -42 -9 -69 -9 -27 -1 -63 -5 -80 -10 -17 -5 -51
-15 -76 -21 -162 -41 -366 -130 -455 -199 -22 -16 -57 -43 -79 -58 -56 -41
-193 -172 -224 -215 -153 -211 -199 -302 -242 -475 -59 -235 -62 -453 -10
-647 75 -280 207 -484 464 -715 58 -52 103 -98 101 -101 -6 -10 -113 -60 -128
-60 -16 0 -94 -76 -102 -99 -3 -11 -31 -26 -78 -41 -102 -33 -241 -104 -266
-136 -11 -14 -28 -50 -38 -80 -14 -45 -15 -60 -4 -96 35 -121 112 -174 309
-213 42 -9 102 -27 133 -40 30 -13 81 -27 112 -31 54 -6 67 -14 74 -39 55
-201 62 -519 17 -775 -9 -47 -20 -110 -25 -140 -21 -126 -30 -160 -68 -270
-79 -228 -110 -303 -158 -382 -71 -118 -123 -167 -226 -215 -104 -48 -157
-113 -157 -192 0 -22 13 -68 31 -108 28 -62 30 -74 25 -137 -12 -134 -84 -224
-272 -344 -224 -141 -270 -175 -358 -260 -95 -92 -150 -171 -182 -261 -15 -42
-34 -85 -41 -96 -9 -13 -13 -53 -13 -120 0 -106 19 -178 70 -260 25 -40 20
-52 -35 -105 -50 -47 -80 -112 -91 -190 -5 -36 -7 -172 -5 -304 l3 -239 34
-67 c37 -75 98 -136 167 -168 51 -24 187 -71 242 -84 116 -27 204 -45 287 -58
212 -36 284 -48 353 -60 139 -25 183 -31 240 -36 33 -3 69 -9 80 -14 11 -5 56
-12 100 -14 90 -6 215 -20 320 -36 275 -42 487 -55 687 -41 95 6 202 12 238
13 291 5 641 45 947 109 417 86 675 193 791 327 115 133 115 133 102 472 -11
296 -15 320 -68 400 -23 36 -42 72 -42 80 0 9 15 45 34 80 40 76 51 110 37
110 -5 0 -12 -13 -16 -30 -4 -16 -10 -30 -15 -30 -4 0 -2 17 6 38 7 20 13 45
14 55 0 9 7 17 16 17 11 0 14 8 12 33 -2 21 -8 31 -17 29 -11 -2 -13 7 -8 48
5 45 1 63 -33 142 -21 50 -48 100 -59 112 -12 12 -21 26 -21 30 0 14 -100 109
-182 172 -46 35 -155 112 -242 170 -222 148 -267 197 -317 343 -26 73 -24 95
11 169 61 129 33 205 -109 300 -127 85 -199 169 -275 319 -63 127 -128 324
-155 473 -7 36 -16 83 -21 105 -13 59 -27 147 -42 255 -17 127 -17 478 1 548
7 30 14 68 15 85 2 31 3 32 61 39 33 4 98 19 145 32 47 13 114 30 150 37 87
18 202 94 248 164 32 48 34 53 30 129 l-3 78 -52 48 c-31 29 -78 58 -120 75
-37 16 -103 42 -145 59 -43 18 -85 43 -97 57 -11 14 -39 33 -63 43 -77 31
-132 61 -135 73 -3 6 31 41 74 76 43 36 116 108 163 162 189 216 277 404 326
695 49 300 -38 669 -220 935 -200 291 -578 521 -946 577 -90 13 -361 19 -385
8z m515 -480 c0 -5 -5 -10 -11 -10 -5 0 -7 5 -4 10 3 6 8 10 11 10 2 0 4 -4 4
-10z m137 -7 c-15 -2 -25 -9 -22 -14 4 -5 -5 -9 -19 -9 -14 0 -28 5 -32 11 -4
7 0 9 14 5 11 -4 23 -2 27 4 3 5 18 9 33 9 l27 -2 -28 -4z m17 -29 c23 -9 9
-24 -22 -24 -15 -1 -38 -7 -52 -15 -30 -17 -44 -19 -34 -4 5 8 39 27 91 48 1
1 8 -2 17 -5z m145 -35 c13 -11 19 -19 13 -19 -6 0 -13 4 -17 9 -3 5 -19 12
-35 16 -17 4 -30 11 -30 16 0 14 39 1 69 -22z m41 -11 c0 -5 -7 -3 -15 6 -8 8
-15 18 -15 22 0 3 7 1 15 -6 8 -7 15 -17 15 -22z m-123 -2 c-1 -6 8 -10 20 -8
31 4 64 -15 57 -33 -4 -10 0 -15 14 -15 24 0 38 -16 20 -23 -7 -3 -2 -6 12 -6
18 -1 29 -10 38 -31 8 -17 21 -30 32 -30 17 0 35 -24 32 -45 -1 -5 7 -21 18
-35 15 -20 20 -21 20 -8 0 9 -4 20 -10 23 -5 3 -10 11 -10 17 0 7 6 6 15 -2 8
-7 15 -21 15 -30 0 -10 4 -20 10 -22 5 -1 14 -19 20 -38 8 -31 8 -33 -4 -17
-16 21 -29 9 -15 -13 13 -22 11 -30 -6 -24 -9 4 -15 1 -15 -7 0 -9 11 -14 28
-14 23 0 28 4 24 18 -2 9 0 17 6 17 14 0 19 -20 27 -102 4 -46 3 -68 -4 -68
-6 0 -11 14 -11 30 0 20 -5 30 -15 30 -12 0 -13 -9 -8 -45 6 -48 -2 -59 -17
-22 l-9 22 0 -23 c-1 -13 -5 -21 -10 -18 -14 9 -21 -22 -11 -50 15 -38 13 -43
-18 -42 -15 1 -37 -4 -48 -10 -11 -6 -47 -9 -80 -7 -32 3 -65 4 -72 5 -7 0
-12 8 -10 18 1 9 -1 23 -5 30 -6 8 -1 12 17 12 14 0 26 5 26 11 0 6 -8 8 -18
5 -12 -4 -26 1 -37 14 -10 11 -21 17 -26 15 -12 -8 -39 36 -39 62 0 13 -4 23
-9 23 -4 0 -6 -12 -4 -27 l4 -28 -17 23 c-9 12 -27 22 -41 22 -33 0 -25 -21
16 -41 l33 -15 -44 2 c-57 4 -55 3 -41 12 8 5 1 28 -22 77 -19 38 -32 71 -31
73 2 1 18 -11 37 -28 19 -16 28 -30 21 -30 -10 0 -10 -5 -2 -20 13 -25 30 -26
30 -2 0 18 -34 76 -42 70 -9 -6 -35 27 -30 40 2 6 -1 12 -7 12 -6 0 -11 11
-11 25 0 15 -7 40 -17 58 -9 18 -17 43 -18 57 -1 14 -3 36 -4 50 -1 20 -3 22
-11 10 -5 -8 -7 -24 -4 -35 5 -15 3 -17 -5 -9 -7 6 -9 22 -6 36 6 23 11 25 51
23 24 -2 46 1 50 6 3 5 -10 9 -28 10 l-33 1 33 9 c25 7 32 14 28 26 -4 11 -2
14 9 10 8 -4 21 1 29 9 29 28 138 37 133 10z m-192 -6 c-3 -5 -11 -10 -16 -10
-6 0 -7 5 -4 10 3 6 11 10 16 10 6 0 7 -4 4 -10z m320 -30 c3 -5 2 -10 -4 -10
-5 0 -13 5 -16 10 -3 6 -2 10 4 10 5 0 13 -4 16 -10z m59 -16 c5 -14 4 -15 -9
-4 -17 14 -19 20 -6 20 5 0 12 -7 15 -16z m-5 -39 c13 -20 21 -38 18 -41 -3
-3 -13 8 -23 25 -10 17 -22 31 -26 31 -4 0 -8 5 -8 10 0 19 15 9 39 -25z m51
-36 c0 -6 -4 -7 -10 -4 -5 3 -10 11 -10 16 0 6 5 7 10 4 6 -3 10 -11 10 -16z
m26 -46 c-7 -7 -26 7 -26 19 0 6 6 6 15 -2 9 -7 13 -15 11 -17z m-537 -56 c1
-5 -3 -5 -9 -2 -5 3 -10 16 -9 28 0 21 1 21 9 2 5 -11 9 -24 9 -28z m231 -306
c0 -5 -7 -11 -14 -14 -10 -4 -13 -1 -9 9 6 15 23 19 23 5z m40 -11 c0 -5 -2
-10 -4 -10 -3 0 -8 5 -11 10 -3 6 -1 10 4 10 6 0 11 -4 11 -10z m299 -32 c-1
-42 -1 -42 -10 -13 -5 17 -7 36 -4 43 9 24 15 11 14 -30z m41 32 c0 -5 -7 -10
-16 -10 -8 0 -12 5 -9 10 3 6 10 10 16 10 5 0 9 -4 9 -10z m-398 -42 c-17 -8
-26 -8 -34 0 -9 9 -4 12 23 11 32 0 33 -1 11 -11z m73 -9 c4 -6 5 -12 2 -15
-7 -7 -37 7 -37 17 0 13 27 11 35 -2z m-85 -24 c7 -9 8 -15 2 -15 -5 0 -12 7
-16 15 -3 8 -4 15 -2 15 2 0 9 -7 16 -15z m295 -25 c-3 -5 -10 -10 -16 -10 -5
0 -9 5 -9 10 0 6 7 10 16 10 8 0 12 -4 9 -10z m-105 -10 c0 -5 -7 -7 -15 -4
-8 4 -15 8 -15 10 0 2 7 4 15 4 8 0 15 -4 15 -10z m170 -10 c0 -5 -7 -10 -15
-10 -8 0 -15 5 -15 10 0 6 7 10 15 10 8 0 15 -4 15 -10z m-280 -20 c-8 -6 -22
-10 -30 -9 -9 0 -5 6 10 14 27 14 44 10 20 -5z m90 10 c0 -5 -13 -10 -30 -10
-16 0 -30 5 -30 10 0 6 14 10 30 10 17 0 30 -4 30 -10z m73 3 c-7 -2 -21 -2
-30 0 -10 3 -4 5 12 5 17 0 24 -2 18 -5z m-16 -29 c-3 -3 -12 -4 -19 -1 -8 3
-5 6 6 6 11 1 17 -2 13 -5z m-42 -14 c-3 -5 -15 -10 -26 -10 -11 0 -17 5 -14
10 3 6 15 10 26 10 11 0 17 -4 14 -10z m-143 -1267 c-10 -4 -9 -8 5 -19 11 -8
13 -13 6 -14 -7 0 -13 -4 -13 -10 0 -5 8 -7 18 -3 11 4 14 3 7 -4 -31 -30
-265 -47 -265 -19 0 10 7 12 23 8 20 -5 21 -4 8 12 -22 26 -4 34 104 44 125
12 123 11 107 5z m148 -162 c-22 -12 -182 -39 -272 -46 -87 -6 -115 9 -35 19
28 4 95 13 147 20 114 16 182 19 160 7z m-112 -68 c-16 -2 -40 -2 -55 0 -16 2
-3 4 27 4 30 0 43 -2 28 -4z m-86 -175 c-20 -20 -13 -32 7 -14 17 16 42 18
208 17 216 0 218 -1 238 -27 13 -18 14 -18 9 6 -5 24 -5 24 10 6 18 -23 20
-35 6 -56 -8 -12 -10 -12 -16 3 -7 19 -24 23 -24 6 0 -20 -33 -39 -47 -27 -9
7 -13 7 -13 0 0 -16 -229 -19 -240 -3 -3 4 -16 7 -30 5 -14 -1 -47 9 -73 22
l-49 25 8 -23 c6 -20 5 -21 -9 -10 -20 17 -3 82 21 82 3 0 1 -5 -6 -12z m-89
-13 c-3 -9 -8 -14 -10 -11 -3 3 -2 9 2 15 9 16 15 13 8 -4z m48 -18 c-8 -8
-11 -7 -11 4 0 20 13 34 18 19 3 -7 -1 -17 -7 -23z m-36 -1227 c3 -5 2 -10 -4
-10 -5 0 -13 5 -16 10 -3 6 -2 10 4 10 5 0 13 -4 16 -10z m42 -66 c-3 -3 -12
-4 -19 -1 -8 3 -5 6 6 6 11 1 17 -2 13 -5z m-52 -32 c-3 -3 -11 0 -18 7 -9 10
-8 11 6 5 10 -3 15 -9 12 -12z m83 -48 c-13 -13 -20 -14 -34 -4 -15 9 -15 10
-2 6 9 -2 22 2 29 10 6 8 14 12 17 9 3 -3 -1 -13 -10 -21z m-98 -28 c0 -11
-19 -15 -25 -6 -3 5 1 10 9 10 9 0 16 -2 16 -4z m80 -6 c0 -5 -7 -10 -16 -10
-8 0 -12 5 -9 10 3 6 10 10 16 10 5 0 9 -4 9 -10z m30 6 c0 -3 -4 -8 -10 -11
-5 -3 -10 -1 -10 4 0 6 5 11 10 11 6 0 10 -2 10 -4z m-73 -60 c25 -6 33 -14
38 -37 4 -17 2 -36 -5 -44 -8 -10 -7 -15 5 -22 9 -5 17 -20 19 -34 1 -14 5
-29 8 -34 6 -10 11 -51 9 -70 -1 -5 -6 -3 -11 5 -6 9 -10 10 -10 3 0 -18 20
-27 33 -14 6 6 11 29 10 51 -1 22 2 42 8 45 5 4 9 -15 9 -44 0 -57 20 -151 32
-151 4 0 8 8 9 18 0 11 3 8 8 -8 14 -47 21 -91 13 -86 -5 3 -6 -8 -4 -24 2
-17 8 -27 13 -25 4 3 6 13 3 23 -3 9 6 -5 20 -32 13 -28 22 -55 19 -62 -3 -7
3 -39 13 -71 20 -62 21 -69 23 -95 0 -10 11 -27 24 -39 12 -12 17 -19 11 -16
-7 4 -34 4 -60 0 -41 -6 -45 -8 -24 -14 14 -4 -32 -5 -103 -3 -70 2 -136 8
-147 14 -17 9 -19 8 -13 -7 3 -10 4 -16 2 -13 -2 3 -13 16 -24 29 l-20 23 34
-7 c23 -5 31 -4 27 4 -9 13 -1 14 42 2 24 -7 32 -7 30 1 -2 6 -13 12 -24 13
-34 3 -64 16 -58 26 3 5 11 6 17 2 7 -4 4 6 -7 21 -10 16 -13 25 -7 22 7 -4
11 1 11 13 0 11 -4 23 -10 26 -5 3 -10 12 -10 18 1 19 39 -36 41 -58 1 -14 3
-15 6 -5 5 20 -33 107 -51 117 -7 4 -16 19 -20 33 -6 25 -6 25 5 3 7 -13 17
-23 23 -23 6 0 19 -14 29 -31 10 -18 21 -29 24 -25 4 3 1 12 -5 18 -7 7 -12
19 -12 28 0 10 -9 27 -20 40 -11 13 -20 28 -20 33 0 6 7 2 16 -9 14 -18 15
-13 10 56 -3 41 -10 76 -16 78 -5 2 -10 7 -10 11 0 11 84 0 92 -13 5 -7 8 -5
8 7 0 9 -6 17 -14 17 -8 0 -21 8 -28 18 -7 10 -23 17 -35 16 -13 -1 -23 4 -24
10 0 6 -2 21 -3 34 -2 12 1 22 6 22 17 0 7 18 -14 25 -22 6 -22 7 7 20 26 12
31 11 36 -3 4 -13 7 -12 11 6 4 15 2 22 -9 22 -24 0 -73 33 -73 50 0 12 2 12
9 1 7 -10 13 -11 30 -2 17 10 19 16 11 31 -14 27 -13 29 18 25 15 -1 26 -8 25
-14 -3 -13 13 -15 21 -3 3 5 -6 19 -19 30 -14 12 -25 19 -25 15 0 -3 -9 2 -20
12 -11 10 -20 23 -20 29 0 6 6 4 13 -5 7 -9 27 -20 44 -23z m83 -16 c0 -5 -4
-10 -10 -10 -5 0 -10 5 -10 10 0 6 5 10 10 10 6 0 10 -4 10 -10z m-141 -64 c1
-5 -8 -1 -19 9 -16 14 -17 20 -8 26 12 8 25 -10 27 -35z m141 34 c0 -5 -2 -10
-4 -10 -3 0 -8 5 -11 10 -3 6 -1 10 4 10 6 0 11 -4 11 -10z m10 -49 c0 -17 -5
-33 -11 -36 -15 -10 -17 -4 -12 33 6 40 23 42 23 3z m63 -136 c5 -56 4 -76 -4
-68 -5 5 -12 52 -14 104 -4 108 8 84 18 -36z m74 -77 c-3 -8 -6 -5 -6 6 -1 11
2 17 5 13 3 -3 4 -12 1 -19z m28 -181 c-2 -49 -1 -86 2 -83 3 3 17 -27 31 -67
13 -39 28 -76 33 -82 12 -12 12 -25 0 -25 -5 0 -16 17 -25 38 -13 30 -16 31
-11 9 4 -19 2 -26 -5 -22 -5 3 -10 19 -10 35 0 16 -5 41 -11 57 -6 15 -13 46
-14 68 -2 22 -7 58 -11 79 -6 31 -4 37 6 31 10 -6 12 -1 7 22 -3 17 -9 44 -12
59 l-5 29 14 -30 c10 -21 14 -56 11 -118z m-37 89 c2 -10 0 -22 -6 -28 -6 -6
-8 0 -4 18 3 19 1 25 -7 20 -6 -4 -11 -2 -11 4 0 18 25 5 28 -14z m79 -58 c-3
-8 -6 -5 -6 6 -1 11 2 17 5 13 3 -3 4 -12 1 -19z m-13 -63 c3 -8 1 -15 -4 -15
-6 0 -10 7 -10 15 0 8 2 15 4 15 2 0 6 -7 10 -15z m21 -81 c3 -30 1 -44 -4
-35 -9 14 -14 97 -5 88 3 -3 7 -27 9 -53z m-390 19 c8 -18 9 -22 20 -81 3 -18
9 -40 12 -48 3 -8 0 -14 -6 -14 -14 0 -51 77 -51 104 1 17 4 15 15 -9 7 -16
14 -23 14 -15 1 8 -6 28 -14 44 -18 33 -18 36 -6 36 5 0 12 -8 16 -17z m-68
-85 c-3 -8 -6 -5 -6 6 -1 11 2 17 5 13 3 -3 4 -12 1 -19z m63 -112 c0 -3 -9 2
-20 11 -11 10 -20 24 -20 32 0 8 8 3 20 -12 11 -14 20 -28 20 -31z m420 -71
c-41 -7 -133 -15 -205 -18 -108 -5 -117 -4 -55 3 228 28 391 37 260 15z m240
-63 c0 -35 -323 -73 -495 -58 -22 2 -51 4 -64 5 -29 1 -20 14 12 16 177 16
311 26 397 31 58 3 107 8 109 10 8 8 41 4 41 -4z m-94 -535 c13 -15 26 -43 30
-62 3 -19 12 -39 20 -46 8 -6 14 -16 14 -21 0 -6 -7 -5 -15 2 -12 10 -15 10
-15 0 0 -30 -14 4 -18 42 -6 72 -18 75 -26 7 -4 -40 -2 -65 4 -67 5 -2 10 -9
10 -14 0 -6 -3 -8 -7 -5 -3 4 -15 -1 -26 -10 -19 -17 -20 -17 -8 5 6 12 10 22
9 23 -35 7 -70 4 -80 -9 -11 -13 -10 -14 7 -9 11 4 27 2 35 -3 10 -7 -5 -10
-51 -10 -36 0 -69 -3 -72 -6 -12 -12 -67 -12 -67 0 0 7 -12 12 -27 11 -15 0
-28 5 -28 12 0 6 -4 15 -9 20 -5 5 -6 3 -2 -4 4 -8 2 -13 -5 -13 -8 0 -8 -4 1
-15 10 -12 10 -15 -3 -15 -25 0 -47 11 -41 21 3 5 10 7 15 4 5 -4 9 1 9 10 0
10 -5 13 -12 9 -6 -4 -17 1 -25 12 -12 16 -13 15 -7 -15 l7 -34 -31 23 c-18
13 -32 32 -32 41 0 10 -11 27 -25 37 -25 20 -48 101 -25 87 5 -3 10 -20 10
-38 0 -33 15 -28 22 8 2 12 13 21 26 23 12 2 22 10 22 18 0 16 16 19 24 5 4
-5 0 -12 -6 -14 -7 -3 -3 -6 10 -6 15 -1 22 5 22 18 0 10 7 24 15 31 10 9 15
9 15 1 0 -6 5 -11 11 -11 6 0 9 6 6 13 -6 17 20 41 27 24 3 -9 7 -8 15 3 9 12
11 12 17 -3 7 -18 34 -24 34 -6 0 5 5 7 10 4 6 -3 10 -2 10 3 0 15 52 25 60
12 4 -6 13 -8 22 -5 10 4 18 -6 28 -37 l14 -43 9 55 10 55 20 -45 c11 -25 30
-58 43 -73z m-8 68 c-3 -3 -9 2 -12 12 -6 14 -5 15 5 6 7 -7 10 -15 7 -18z
m69 -77 c-3 -8 -6 -5 -6 6 -1 11 2 17 5 13 3 -3 4 -12 1 -19z m-553 -117 c-7
-9 -24 13 -24 32 0 21 1 21 13 -3 8 -14 12 -27 11 -29z m41 -41 c3 -5 1 -10
-4 -10 -6 0 -11 5 -11 10 0 6 2 10 4 10 3 0 8 -4 11 -10z m40 -20 c3 -6 -1 -7
-9 -4 -18 7 -21 14 -7 14 6 0 13 -4 16 -10z m142 -16 c-3 -3 -12 -4 -19 -1 -8
3 -5 6 6 6 11 1 17 -2 13 -5z m370 -420 c-3 -3 -12 -4 -19 -1 -8 3 -5 6 6 6
11 1 17 -2 13 -5z m-72 -14 c-3 -5 -16 -10 -28 -9 -21 0 -21 1 -2 9 28 12 37
12 30 0z m280 -21 c14 24 67 0 120 -55 61 -62 68 -94 28 -126 -26 -22 -33 -22
-33 -3 0 8 -4 15 -10 15 -5 0 -10 -13 -10 -29 0 -26 -3 -28 -30 -25 -22 3 -30
-1 -30 -12 0 -11 -4 -12 -19 -4 -14 7 -22 7 -26 0 -4 -6 -10 -8 -15 -5 -5 3
-11 1 -15 -5 -3 -5 -25 -10 -48 -10 -23 0 -49 -4 -57 -9 -8 -6 -18 -7 -23 -4
-5 3 -3 9 4 14 9 6 3 8 -18 6 -24 -1 -29 -5 -21 -14 8 -10 3 -11 -23 -6 -19 4
-52 7 -74 7 -24 1 -48 8 -60 19 -12 11 -30 16 -43 14 -12 -2 -25 0 -28 4 -3 5
7 9 23 9 27 1 27 1 9 15 -24 18 -50 20 -40 3 5 -9 2 -9 -9 1 -9 7 -17 19 -17
26 0 7 -9 15 -20 18 -11 3 -20 0 -20 -5 0 -6 -9 -3 -20 7 -11 10 -20 26 -20
35 0 15 -27 36 -36 28 -1 -2 10 -21 25 -43 20 -28 34 -39 49 -38 12 2 22 -2
22 -9 0 -6 7 -20 17 -30 19 -21 4 -24 -30 -7 -12 7 -30 12 -41 13 -12 1 -23
12 -30 33 -13 38 -37 67 -31 37 10 -49 12 -103 4 -98 -5 3 -9 23 -9 44 0 21
-4 42 -10 45 -5 3 -10 19 -10 36 0 24 4 29 25 29 14 0 29 8 35 20 6 11 19 20
28 20 10 0 26 6 37 14 12 8 28 10 40 6 19 -7 19 -7 0 -18 -11 -6 -15 -12 -8
-12 6 0 15 5 18 10 3 6 21 10 39 10 17 0 37 5 44 12 17 17 28 2 12 -17 -11
-13 -9 -14 16 -10 16 2 55 7 86 10 32 4 60 11 64 17 3 5 18 7 31 3 20 -5 24
-3 20 9 -4 9 -2 16 3 16 6 0 10 -4 10 -10 0 -5 14 -10 31 -10 16 0 28 4 25 9
-10 16 18 19 41 5 12 -8 24 -10 28 -5z m-185 1 c0 -5 -12 -10 -27 -9 -25 0
-26 1 -8 9 27 12 35 12 35 0z m-60 -10 c0 -5 -10 -10 -22 -9 -22 0 -22 1 -3 9
11 5 21 9 23 9 1 1 2 -3 2 -9z m370 -5 c0 4 8 1 17 -6 15 -12 16 -12 10 3 -12
32 45 1 65 -35 9 -17 8 -19 -6 -14 -11 5 -16 1 -16 -13 0 -25 17 -35 23 -13 3
12 5 9 6 -8 0 -14 -2 -29 -5 -32 -8 -7 -54 42 -54 57 0 5 -17 25 -37 44 -21
20 -30 30 -20 22 9 -7 17 -9 17 -5z m-650 1 c0 -3 -4 -8 -10 -11 -5 -3 -10 -1
-10 4 0 6 5 11 10 11 6 0 10 -2 10 -4z m-90 -26 c0 -5 -5 -10 -11 -10 -5 0 -7
5 -4 10 3 6 8 10 11 10 2 0 4 -4 4 -10z m-57 -40 c-3 -11 -1 -26 5 -33 5 -6
13 -30 16 -52 6 -32 5 -38 -5 -28 -28 28 -43 133 -19 133 4 0 6 -9 3 -20z
m947 -40 c0 -13 -1 -13 -10 0 -5 8 -10 22 -10 30 0 13 1 13 10 0 5 -8 10 -22
10 -30z m-675 -150 c3 -5 1 -10 -4 -10 -6 0 -11 5 -11 10 0 6 2 10 4 10 3 0 8
-4 11 -10z m532 -496 c-3 -3 -12 -4 -19 -1 -8 3 -5 6 6 6 11 1 17 -2 13 -5z
m-39 -9 c-15 -16 -228 -57 -383 -74 -298 -32 -305 -33 -305 -21 0 5 21 10 48
10 73 0 365 39 482 64 101 23 169 31 158 21z m-106 -90 c10 -13 -74 -26 -87
-13 -14 13 11 26 49 24 17 0 34 -5 38 -11z m-147 -4 c-3 -5 -1 -12 5 -16 5 -3
10 1 10 9 0 9 6 16 14 16 9 0 12 -7 9 -20 -4 -16 -14 -20 -49 -20 -24 0 -44 4
-44 9 0 16 18 22 24 9 3 -9 8 -8 16 5 6 9 13 17 16 17 3 0 3 -4 -1 -9z m-472
-8 c-13 -2 -33 -2 -45 0 -13 2 -3 4 22 4 25 0 35 -2 23 -4z m1045 -41 c6 -18
-15 -14 -22 4 -4 10 -1 14 6 12 6 -2 14 -10 16 -16z m-98 -14 c0 -4 -10 -8
-23 -8 -12 0 -33 -7 -45 -16 -13 -9 -26 -14 -29 -11 -3 3 -23 -1 -45 -10 -21
-8 -41 -13 -44 -10 -4 3 -18 1 -33 -4 -14 -6 -42 -12 -61 -14 -19 -2 -89 -11
-155 -19 -165 -21 -477 -38 -469 -25 6 11 43 16 249 39 55 5 127 14 160 20 33
5 96 14 140 21 44 6 87 12 95 14 16 3 90 13 149 20 18 3 36 7 39 9 8 9 72 3
72 -6z m-975 -108 c3 -5 1 -10 -4 -10 -6 0 -11 5 -11 10 0 6 2 10 4 10 3 0 8
-4 11 -10z"/>
<path d="M2825 7660 c-3 -5 -1 -10 4 -10 6 0 11 5 11 10 0 6 -2 10 -4 10 -3 0
-8 -4 -11 -10z"/>
<path d="M2665 7610 c-3 -5 -2 -10 2 -10 5 0 9 -8 10 -17 7 -74 10 -87 21 -91
6 -2 12 -18 12 -35 0 -22 3 -28 10 -21 8 8 6 24 -6 55 -9 24 -17 63 -18 86 -1
41 -16 57 -31 33z"/>
<path d="M2740 7569 c0 -5 5 -7 10 -4 6 3 10 8 10 11 0 2 -4 4 -10 4 -5 0 -10
-5 -10 -11z"/>
<path d="M3110 7481 c0 -5 7 -15 17 -22 15 -13 15 -12 4 9 -12 23 -21 28 -21
13z"/>
<path d="M3156 7445 c4 -8 8 -15 10 -15 2 0 4 7 4 15 0 8 -4 15 -10 15 -5 0
-7 -7 -4 -15z"/>
<path d="M2800 7333 c0 -5 4 -15 10 -23 11 -18 25 -7 17 15 -6 15 -27 21 -27
8z"/>
<path d="M3176 7330 c-14 -4 -16 -9 -8 -14 7 -4 10 -12 7 -17 -4 -5 -1 -9 4
-9 6 0 11 9 11 21 0 11 4 18 10 14 5 -3 7 -12 3 -20 -3 -8 0 -15 6 -15 15 0
14 37 -1 43 -7 2 -22 1 -32 -3z"/>
<path d="M2920 7270 c0 -5 5 -10 11 -10 5 0 7 5 4 10 -3 6 -8 10 -11 10 -2 0
-4 -4 -4 -10z"/>
<path d="M3165 7270 c-3 -5 -1 -10 4 -10 6 0 11 5 11 10 0 6 -2 10 -4 10 -3 0
-8 -4 -11 -10z"/>
<path d="M2900 7216 c0 -3 14 -11 30 -20 31 -15 39 -9 18 12 -11 11 -48 17
-48 8z"/>
<path d="M2994 7163 c23 -27 26 -28 52 -7 18 15 18 15 -12 10 -17 -3 -37 0
-45 7 -7 7 -5 2 5 -10z"/>
<path d="M3087 7153 c-9 -2 -15 -9 -12 -14 9 -14 -64 -20 -82 -6 -7 5 -20 6
-30 3 -30 -12 4 -30 52 -27 27 1 45 -2 45 -8 0 -6 5 -11 12 -11 6 0 8 3 5 7
-13 12 16 33 45 33 19 0 28 4 26 13 -5 13 -32 18 -61 10z"/>
<path d="M2725 3770 c3 -5 8 -10 11 -10 2 0 4 5 4 10 0 6 -5 10 -11 10 -5 0
-7 -4 -4 -10z"/>
<path d="M2717 3736 c-4 -9 3 -16 19 -19 29 -5 31 4 5 20 -15 10 -20 9 -24 -1z"/>
<path d="M2774 3709 c-3 -6 -1 -16 5 -22 8 -8 11 -5 11 11 0 24 -5 28 -16 11z"/>
<path d="M2780 3651 c0 -6 5 -13 10 -16 6 -3 10 1 10 9 0 9 -4 16 -10 16 -5 0
-10 -4 -10 -9z"/>
<path d="M2730 3620 c0 -5 5 -10 10 -10 6 0 10 5 10 10 0 6 -4 10 -10 10 -5 0
-10 -4 -10 -10z"/>
<path d="M2765 3610 c-3 -5 -1 -10 4 -10 6 0 11 5 11 10 0 6 -2 10 -4 10 -3 0
-8 -4 -11 -10z"/>
<path d="M2820 3559 c0 -5 5 -7 10 -4 6 3 10 -3 10 -13 0 -11 -8 -23 -17 -27
-17 -6 -17 -7 0 -20 10 -7 17 -21 15 -32 -2 -14 2 -17 19 -15 17 2 24 -3 29
-25 10 -46 12 -50 13 -18 1 17 -8 45 -19 63 -11 18 -20 41 -20 51 0 30 -11 51
-26 51 -8 0 -14 -5 -14 -11z"/>
<path d="M2740 3490 c-8 -5 -11 -12 -8 -16 4 -3 14 1 23 10 18 17 9 21 -15 6z"/>
<path d="M2752 3379 c6 -16 13 -28 15 -25 8 8 -6 56 -17 56 -5 0 -5 -13 2 -31z"/>
<path d="M2866 3363 c6 -62 14 -68 14 -10 0 25 -4 48 -9 52 -6 3 -8 -14 -5
-42z"/>
<path d="M2780 3363 c0 -5 8 -17 17 -28 14 -18 15 -18 9 -2 -3 10 -6 23 -6 28
0 5 -4 9 -10 9 -5 0 -10 -3 -10 -7z"/>
<path d="M2930 3322 c0 -10 7 -27 16 -38 14 -17 15 -17 10 -1 -3 10 -6 27 -6
38 0 10 -4 19 -10 19 -5 0 -10 -8 -10 -18z"/>
<path d="M2919 3232 c12 -40 41 -95 48 -88 3 3 -2 17 -12 32 -11 18 -15 36
-11 58 4 22 3 27 -4 16 -6 -10 -10 -11 -10 -2 0 6 -4 12 -9 12 -6 0 -6 -12 -2
-28z"/>
<path d="M2980 3116 c0 -2 8 -10 18 -17 15 -13 16 -12 3 4 -13 16 -21 21 -21
13z"/>
<path d="M2940 2439 c0 -5 5 -7 10 -4 6 3 10 8 10 11 0 2 -4 4 -10 4 -5 0 -10
-5 -10 -11z"/>
<path d="M2770 2341 c0 -16 12 -41 20 -41 4 0 5 11 2 25 -4 23 -22 36 -22 16z"/>
<path d="M3540 1712 c0 -5 7 -13 16 -16 10 -4 14 -1 12 6 -5 15 -28 23 -28 10z"/>
<path d="M3570 1671 c0 -5 5 -13 10 -16 6 -3 10 -2 10 4 0 5 -4 13 -10 16 -5
3 -10 2 -10 -4z"/>
<path d="M3620 1672 c0 -12 19 -26 26 -19 2 2 -2 10 -11 17 -9 8 -15 8 -15 2z"/>
<path d="M3085 1570 c3 -5 8 -10 11 -10 2 0 4 5 4 10 0 6 -5 10 -11 10 -5 0
-7 -4 -4 -10z"/>
<path d="M3590 1572 c0 -5 -3 -17 -6 -25 -3 -8 1 -17 9 -20 11 -4 14 1 12 19
-2 25 -15 47 -15 26z"/>
<path d="M2985 1540 c3 -5 8 -10 11 -10 2 0 4 5 4 10 0 6 -5 10 -11 10 -5 0
-7 -4 -4 -10z"/>
<path d="M3260 1500 c0 -5 5 -10 11 -10 5 0 7 5 4 10 -3 6 -8 10 -11 10 -2 0
-4 -4 -4 -10z"/>
<path d="M3140 5009 c0 -5 5 -7 10 -4 6 3 10 8 10 11 0 2 -4 4 -10 4 -5 0 -10
-5 -10 -11z"/>
</g>
</svg>
